# xmcd
# Track frame offsets: 
#        150
#        10362
#        22537
#        38535
#        50018
#        66001
#        78784
#        97735
#        111051
#        132764
#        156643
# Disc length: 2395 seconds
# Revision: 0
# Processed by: cddbd v1.5.2PL0 Copyright (c) Steve Scherf et al.
# Submitted via: ExactAudioCopy v0.90a9
#
DISCID=7709590b
DTITLE=Hannes Jaric - Funk The Boogie
DYEAR=1900
DGENRE=
TTITLE0=Funk the Boogie
TTITLE1=Rocking Boogie
TTITLE2=Happy Hour
TTITLE3=Another Line
TTITLE4=Springtime
TTITLE5=Solo Ballade
TTITLE6=Kansas City
TTITLE7=Boogie Runner 1997
TTITLE8=Back to the Church
TTITLE9=So High
TTITLE10=Also sprach Zahnarzt Tustra
EXTD=
EXTT0=
EXTT1=
EXTT2=
EXTT3=
EXTT4=
EXTT5=
EXTT6=
EXTT7=
EXTT8=
EXTT9=
EXTT10=
PLAYORDER=
